<svg xmlns="http://www.w3.org/2000/svg" style="display: none">
  <symbol id="github" viewBox="0 0 98 96">
    <path fill-rule="evenodd" clip-rule="evenodd" d="M48.854 0C21.839 0 0 22 0 49.217c0 21.756 13.993 40.172 33.405 46.69 2.427.49 3.316-1.059 3.316-2.362 0-1.141-.08-5.052-.08-9.127-13.59 2.934-16.42-5.867-16.42-5.867-2.184-5.704-5.42-7.17-5.42-7.17-4.448-3.015.324-3.015.324-3.015 4.934.326 7.523 5.052 7.523 5.052 4.367 7.496 11.404 5.378 14.235 4.074.404-3.178 1.699-5.378 3.074-6.6-10.839-1.141-22.243-5.378-22.243-24.283 0-5.378 1.94-9.778 5.014-13.2-.485-1.222-2.184-6.275.486-13.038 0 0 4.125-1.304 13.426 5.052a46.97 46.97 0 0 1 12.214-1.63c4.125 0 8.33.571 12.213 1.63 9.302-6.356 13.427-5.052 13.427-5.052 2.67 6.763.97 11.816.485 13.038 3.155 3.422 5.015 7.822 5.015 13.2 0 18.905-11.404 23.06-22.324 24.283 1.78 1.548 3.316 4.481 3.316 9.126 0 6.6-.08 11.897-.08 13.526 0 1.304.89 2.853 3.316 2.364 19.412-6.52 33.405-24.935 33.405-46.691C97.707 22 75.788 0 48.854 0z"/>
  </symbol>

  <symbol id="linkedin" viewBox="0 0 382 382">
    <path d="M347.445,0H34.555C15.471,0,0,15.471,0,34.555v312.889C0,366.529,15.471,382,34.555,382h312.889 C366.529,382,382,366.529,382,347.444V34.555C382,15.471,366.529,0,347.445,0z M118.207,329.844c0,5.554-4.502,10.056-10.056,10.056 H65.345c-5.554,0-10.056-4.502-10.056-10.056V150.403c0-5.554,4.502-10.056,10.056-10.056h42.806 c5.554,0,10.056,4.502,10.056,10.056V329.844z M86.748,123.432c-22.459,0-40.666-18.207-40.666-40.666S64.289,42.1,86.748,42.1 s40.666,18.207,40.666,40.666S109.208,123.432,86.748,123.432z M341.91,330.654c0,5.106-4.14,9.246-9.246,9.246H286.73 c-5.106,0-9.246-4.14-9.246-9.246v-84.168c0-12.556,3.683-55.021-32.813-55.021c-28.309,0-34.051,29.066-35.204,42.11v97.079 c0,5.106-4.139,9.246-9.246,9.246h-44.426c-5.106,0-9.246-4.14-9.246-9.246V149.593c0-5.106,4.14-9.246,9.246-9.246h44.426 c5.106,0,9.246,4.14,9.246,9.246v15.655c10.497-15.753,26.097-27.912,59.312-27.912c73.552,0,73.131,68.716,73.131,106.472 L341.91,330.654L341.91,330.654z"></path>
  </symbol>

  <symbol id="google-scholar" viewBox="0 0 32 32">
    <path d="M14.573 2.729c-0.729 0.484-4.292 2.849-7.917 5.255s-6.589 4.396-6.589 4.422c0 0.026 0.182 0.146 0.406 0.266 0.224 0.13 3.797 2.109 7.953 4.411l7.542 4.193 0.193-0.099c0.109-0.052 2.891-1.641 6.188-3.521l5.99-3.427 0.036 10.599h3.557v-12.401l-4.615-3.094c-6.219-4.167-11.188-7.448-11.307-7.474-0.063-0.010-0.703 0.38-1.438 0.87zM7.141 22.177l0.016 2.672 8.828 5.292 8.891-5.339v-2.641c0-1.458-0.016-2.646-0.031-2.646-0.021 0-1.76 1.042-3.87 2.323l-4.406 2.661-0.578 0.339-1.755-1.052c-1.464-0.875-2.927-1.755-4.385-2.641l-2.672-1.615c-0.031-0.010-0.042 1.177-0.036 2.646z"></path>
  </symbol>
  
  <symbol id="minimize" viewBox="0 0 24 24" fill="none" stroke="currentColor" stroke-width="2">
    <g transform="matrix(-1, 0, 0, 1, 24, 0)">
      <path d="M12.9999 21.9994C17.055 21.9921 19.1784 21.8926 20.5354 20.5355C21.9999 19.0711 21.9999 16.714 21.9999 12C21.9999 7.28595 21.9999 4.92893 20.5354 3.46447C19.071 2 16.714 2 11.9999 2C7.28587 2 4.92884 2 3.46438 3.46447C2.10734 4.8215 2.00779 6.94493 2.00049 11" stroke-linecap="round"></path>
      <path d="M17 7L12 12M12 12H15.75M12 12V8.25" stroke-linecap="round" stroke-linejoin="round"></path>
      <path d="M2 18C2 16.1144 2 15.1716 2.58579 14.5858C3.17157 14 4.11438 14 6 14C7.88562 14 8.82843 14 9.41421 14.5858C10 15.1716 10 16.1144 10 18C10 19.8856 10 20.8284 9.41421 21.4142C8.82843 22 7.88562 22 6 22C4.11438 22 3.17157 22 2.58579 21.4142C2 20.8284 2 19.8856 2 18Z"></path>
    </g>
  </symbol>

  <symbol id="maximize" viewBox="0 0 24 24" fill="none" stroke="currentColor" stroke-width="2">
    <g transform="matrix(-1, 0, 0, 1, 24, 0)">
      <path d="M12.9999 21.9994C17.055 21.9921 19.1784 21.8926 20.5354 20.5355C21.9999 19.0711 21.9999 16.714 21.9999 12C21.9999 7.28595 21.9999 4.92893 20.5354 3.46447C19.071 2 16.714 2 11.9999 2C7.28587 2 4.92884 2 3.46438 3.46447C2.10734 4.8215 2.00779 6.94493 2.00049 11" stroke-linecap="round"></path>
      <path d="M12 12L17 7M17 7H13.25M17 7V10.75" stroke-linecap="round" stroke-linejoin="round"></path>
      <path d="M2 18C2 16.1144 2 15.1716 2.58579 14.5858C3.17157 14 4.11438 14 6 14C7.88562 14 8.82843 14 9.41421 14.5858C10 15.1716 10 16.1144 10 18C10 19.8856 10 20.8284 9.41421 21.4142C8.82843 22 7.88562 22 6 22C4.11438 22 3.17157 22 2.58579 21.4142C2 20.8284 2 19.8856 2 18Z"></path>
    </g>
  </symbol>

  <symbol id="info" viewBox="0 0 24 24" fill="currentColor" stroke="currentColor" stroke-width="0.7">
    <path d="M12 17.75C12.4142 17.75 12.75 17.4142 12.75 17V11C12.75 10.5858 12.4142 10.25 12 10.25C11.5858 10.25 11.25 10.5858 11.25 11V17C11.25 17.4142 11.5858 17.75 12 17.75Z"></path>
    <path d="M12 7C12.5523 7 13 7.44772 13 8C13 8.55228 12.5523 9 12 9C11.4477 9 11 8.55228 11 8C11 7.44772 11.4477 7 12 7Z"></path>
    <path fill-rule="evenodd" clip-rule="evenodd" d="M1.25 12C1.25 6.06294 6.06294 1.25 12 1.25C17.9371 1.25 22.75 6.06294 22.75 12C22.75 17.9371 17.9371 22.75 12 22.75C6.06294 22.75 1.25 17.9371 1.25 12ZM12 2.75C6.89137 2.75 2.75 6.89137 2.75 12C2.75 17.1086 6.89137 21.25 12 21.25C17.1086 21.25 21.25 17.1086 21.25 12C21.25 6.89137 17.1086 2.75 12 2.75Z"></path>
  </symbol>
</svg>
